<svg version="1" xmlns="http://www.w3.org/2000/svg" width="800" height="800" viewBox="0 0 600.000000 600.000000"><path d="M401.8 92.5c-.2.2-4.1.5-8.6.6-4.6.2-8.6.6-9 .9-1 .7-5.1 7.3-17.2 28-5.6 9.6-11.1 18.7-12.1 20.2s-1.9 3-1.9 3.2c0 .3-1.6 3-3.5 6s-3.5 5.7-3.5 6c0 .2-1.8 3.3-4 6.7-2.2 3.5-4.3 7.1-4.7 7.9-.3.8-2.3 4.2-4.4 7.5-3.2 5.2-26.4 44.3-31.5 53.2-6.1 10.4-35.7 59.8-37.4 62.3-.6.8-1.3 2.3-1.6 3.2-.4 1-1 1.8-1.4 1.8-.4 0-1.1.8-1.4 1.7-.3 1-1.2 2.7-1.9 3.8-10.8 17.9-13.1 21.4-13.7 21-.5-.3-2.5-3.3-4.4-6.8-2-3.4-4.6-7.9-5.9-9.9-1.2-2.1-5.1-8.6-8.7-14.5-3.5-6-14.9-25-25.3-42.3-10.4-17.3-19.8-32.9-20.8-34.7-1-1.7-3-5-4.4-7.3-1.4-2.3-3.4-5.6-4.4-7.3-1-1.8-6.4-10.9-12.1-20.2-5.7-9.4-11.1-18.4-12-20-1-1.7-7-11.8-13.5-22.5-6.4-10.7-12.9-21.5-14.2-24-1.4-2.5-3.2-5.2-3.9-6.1-.8-.8-1.4-1.9-1.4-2.3 0-.4-1.8-3.4-4-6.8-2.1-3.3-4.1-6.6-4.3-7.1-.2-.8-16.7-1.1-52.1-1.1C7.1 93.5.9 93.7 1.3 95c.3 1.3 9.9 17.8 45 77.5 5.5 9.3 10.5 17.9 11.1 19 .6 1.1 3.7 6.3 6.7 11.5 7.3 12.3 35.6 60.6 37.9 64.5 1 1.6 3.9 6.6 6.5 11s5.6 9.5 6.6 11.2c3.5 6.1 5.7 9.8 13.9 23.8 4.6 7.7 9.4 16 10.8 18.5 1.4 2.5 3.3 5.6 4.2 7 .9 1.4 2.8 4.5 4.2 7 1.4 2.5 4.8 8.3 7.5 13 5.4 9.3 28.5 48.5 31.1 53.1 1 1.5 5.1 8.5 9.2 15.6 4.1 7 8.7 14.8 10.2 17.3s3.1 5.2 3.5 6c.3.8 2.3 4.2 4.3 7.5 2.1 3.3 5.7 9.4 8.1 13.5 2.4 4.1 4.9 8.4 5.6 9.5.7 1.1 1.6 2.7 2 3.5.4.8 3.7 6.4 7.2 12.3 5.1 8.7 6.6 10.6 7.6 9.5.6-.7 3.7-5.6 6.7-10.8 3-5.2 10.8-18.5 17.3-29.5s12.3-20.9 12.9-21.9c.6-1.1 1.5-2.5 1.9-3 .4-.6 7.8-13 16.4-27.6 8.5-14.6 19.1-32.6 23.5-40 4.4-7.4 8.8-14.9 9.8-16.5 8.4-14.6 34.3-58.2 34.9-58.8.5-.5 4.4.1 8.7 1.2 20.3 5.1 33.8 6.6 58.4 6.6 22.2 0 31.2-.8 49-4.5 62.4-12.9 105.7-47.4 114.8-91.5.4-1.7.6-8 .6-14 0-12.3-1.9-19.8-7.7-32-15.9-32.9-53.8-62.1-89.4-68.9-4.3-.8-10-1.8-12.8-2.1-5.3-.7-87.1-1.6-87.7-1zm70.7 25c16.9 4 28.5 15.6 32.2 32.5.7 3.4.7 13.9 0 14.6-1.2 1.3-19.7 1.2-19.8 0 0-.6-.3-3.6-.5-6.6-.4-7.1-2.7-12.5-7-16.7-4.6-4.4-9.6-6.4-17.4-6.8-15-.7-23.7 6-24.7 19-.5 5-.1 6.9 1.7 10.6 3.4 6.7 7.5 9.8 26.8 20.8 24.5 13.8 32 19.5 37.6 28.5 8.8 14.5 5.7 36.7-6.9 48.5-5.8 5.4-10.5 7.9-19 10.1-11.9 3-30.1 1.8-38.8-2.6-11-5.6-19.7-15.9-21.6-25.7-1.6-7.7-1.9-17.6-.7-18.6 1.5-1.2 18.5-1 19.3.2.3.6.7 3.9.9 7.4.3 6.6 2.9 12.8 7.1 16.5 8.7 7.9 28.8 8.3 36.9.7 8.5-7.9 9-22.5 1.2-30.6-4.7-4.9-9.3-8-26.3-17.3-17.5-9.6-22.4-12.8-27.7-18.3-7.9-8.2-11.6-17.6-11.3-29.2.6-23.8 17.6-38.6 44-38.3 4.9 0 11.2.6 14 1.3z"/></svg>